<?xml version="1.0" standalone="no"?>
<!DOCTYPE svg PUBLIC "-//W3C//DTD SVG 20010904//EN"
 "http://www.w3.org/TR/2001/REC-SVG-20010904/DTD/svg10.dtd">
<svg version="1.0" xmlns="http://www.w3.org/2000/svg"
 width="863.000000pt" height="1280.000000pt" viewBox="0 0 863.000000 1280.000000"
 preserveAspectRatio="xMidYMid meet">
<g transform="translate(0.000000,1280.000000) scale(0.100000,-0.100000)"
fill="#000000" stroke="none">
<path d="M3294 11499 c-325 -4 -631 -12 -681 -18 -265 -32 -473 -138 -598
-303 -65 -86 -121 -205 -146 -313 -20 -83 -22 -124 -26 -545 -4 -369 -7 -458
-19 -474 -21 -31 -21 -643 1 -672 21 -28 21 -380 0 -408 -22 -29 -22 -641 0
-673 13 -18 15 -396 18 -3109 l2 -3089 23 -85 c63 -235 223 -423 437 -513 92
-38 230 -75 325 -86 348 -41 3080 -41 3420 0 232 28 438 117 568 248 93 93
152 199 194 346 l23 80 3 3141 c2 2768 4 3143 17 3154 22 18 22 655 0 686 -12
18 -15 158 -18 970 -4 1024 -1 980 -57 1139 -96 278 -352 461 -706 505 -92 12
-1346 30 -1864 28 -179 -1 -591 -5 -916 -9z m3357 -1059 c19 -11 19 -67 19
-4118 0 -3182 -3 -4111 -12 -4120 -9 -9 -538 -12 -2319 -12 -2084 0 -2309 2
-2323 16 -15 14 -16 401 -16 4112 0 2253 4 4102 8 4108 4 6 14 14 22 17 29 11
4600 8 4621 -3z"/>
</g>
</svg>
